<svg id="visual" viewBox="0 0 900 600" width="900" height="600" xmlns="http://www.w3.org/2000/svg" xmlns:xlink="http://www.w3.org/1999/xlink" version="1.1"><path d="M0 43L30 47C60 51 120 59 180 63C240 67 300 67 360 70C420 73 480 79 540 75C600 71 660 57 720 51C780 45 840 47 870 48L900 49L900 0L870 0C840 0 780 0 720 0C660 0 600 0 540 0C480 0 420 0 360 0C300 0 240 0 180 0C120 0 60 0 30 0L0 0Z" fill="#6198ff"></path><path d="M0 319L30 311C60 303 120 287 180 272C240 257 300 243 360 250C420 257 480 285 540 269C600 253 660 193 720 192C780 191 840 249 870 278L900 307L900 47L870 46C840 45 780 43 720 49C660 55 600 69 540 73C480 77 420 71 360 68C300 65 240 65 180 61C120 57 60 49 30 45L0 41Z" fill="#3c80ff"></path><path d="M0 421L30 420C60 419 120 417 180 410C240 403 300 391 360 387C420 383 480 387 540 387C600 387 660 383 720 394C780 405 840 431 870 444L900 457L900 305L870 276C840 247 780 189 720 190C660 191 600 251 540 267C480 283 420 255 360 248C300 241 240 255 180 270C120 285 60 301 30 309L0 317Z" fill="#0066ff"></path><path d="M0 547L30 548C60 549 120 551 180 543C240 535 300 517 360 515C420 513 480 527 540 535C600 543 660 545 720 547C780 549 840 551 870 552L900 553L900 455L870 442C840 429 780 403 720 392C660 381 600 385 540 385C480 385 420 381 360 385C300 389 240 401 180 408C120 415 60 417 30 418L0 419Z" fill="#0059dd"></path><path d="M0 601L30 601C60 601 120 601 180 601C240 601 300 601 360 601C420 601 480 601 540 601C600 601 660 601 720 601C780 601 840 601 870 601L900 601L900 551L870 550C840 549 780 547 720 545C660 543 600 541 540 533C480 525 420 511 360 513C300 515 240 533 180 541C120 549 60 547 30 546L0 545Z" fill="#004cbb"></path></svg>