<svg id="visual" viewBox="0 0 960 540" width="960" height="540" xmlns="http://www.w3.org/2000/svg" xmlns:xlink="http://www.w3.org/1999/xlink" version="1.1"><rect x="0" y="0" width="960" height="540" fill="#1a1938"></rect><path d="M0 398L17.8 368.8C35.7 339.7 71.3 281.3 106.8 272C142.3 262.7 177.7 302.3 213.2 303.7C248.7 305 284.3 268 320 255.7C355.7 243.3 391.3 255.7 426.8 256.8C462.3 258 497.7 248 533.2 243.5C568.7 239 604.3 240 640 257.2C675.7 274.3 711.3 307.7 746.8 326.2C782.3 344.7 817.7 348.3 853.2 328.7C888.7 309 924.3 266 942.2 244.5L960 223L960 541L942.2 541C924.3 541 888.7 541 853.2 541C817.7 541 782.3 541 746.8 541C711.3 541 675.7 541 640 541C604.3 541 568.7 541 533.2 541C497.7 541 462.3 541 426.8 541C391.3 541 355.7 541 320 541C284.3 541 248.7 541 213.2 541C177.7 541 142.3 541 106.8 541C71.3 541 35.7 541 17.8 541L0 541Z" fill="#111827" stroke-linecap="round" stroke-linejoin="miter"></path></svg>